<svg width="557" height="557" viewBox="0 0 557 557" fill="none" xmlns="http://www.w3.org/2000/svg">
<path d="M408.551 36.9193C451.74 63.7137 480.425 87.8018 504.942 131.424C528.386 173.139 541.072 225.158 550.35 271.791C562.391 332.312 559.929 398.329 527.5 451.367C493.008 507.78 435.012 554.286 367.337 556.433C301.809 558.512 254.087 556.013 194.61 529.306C137.171 503.512 75.5662 450.361 36.1756 402.367C-4.16008 353.222 -8.36012 279.874 11.7318 220.194C30.2822 165.092 58.7114 112.394 102.746 73.1356C141.047 38.9888 202.756 20.0546 252.592 5.45789C304.379 -9.7102 362.997 8.65767 408.551 36.9193Z" fill="url(#paint0_radial_236_4589)" fill-opacity="0.12"/>
<defs>
<radialGradient id="paint0_radial_236_4589" cx="0" cy="0" r="1" gradientUnits="userSpaceOnUse" gradientTransform="translate(346.58 315.176) rotate(45.6126) scale(361.767 362.212)">
<stop stop-color="#9CCAF8"/>
<stop offset="0.640625" stop-color="white"/>
</radialGradient>
</defs>
</svg>
