<svg width="1006" height="790" viewBox="0 0 1006 790" fill="none" xmlns="http://www.w3.org/2000/svg">
<path d="M143.245 210.546C187.694 149.291 227.653 108.608 300.017 73.8351C369.219 40.5842 455.512 22.5913 532.87 9.4315C633.268 -7.64589 742.783 -4.15353 830.768 41.8407C924.349 90.7602 1001.5 173.017 1005.06 269.002C1008.51 361.941 1004.36 429.625 960.058 513.982C917.27 595.449 829.097 682.823 749.482 738.692C667.956 795.9 546.279 801.857 447.276 773.361C355.869 747.05 268.449 706.729 203.324 644.274C146.678 589.951 115.268 502.429 91.054 431.746C65.8919 358.296 96.3621 275.157 143.245 210.546Z" fill="url(#paint0_radial_252_577)" fill-opacity="0.12"/>
<path d="M2 434.835C14.9257 394.853 50.5882 303.761 89.8325 259.245C138.888 203.601 143.56 197.006 194.017 179.694C244.474 162.382 297.734 179.694 301.471 179.694C305.209 179.694 372.018 194.533 439.294 275.32C506.57 356.108 608.885 428.652 675.694 450.498C729.141 467.974 790.779 470.695 814.918 469.87C848.088 469.321 932.744 461.544 1006 434.835" stroke="url(#paint1_linear_252_577)" stroke-width="4" stroke-linecap="round"/>
<defs>
<radialGradient id="paint0_radial_252_577" cx="0" cy="0" r="1" gradientUnits="userSpaceOnUse" gradientTransform="translate(604.842 298.442) rotate(-39.9255) scale(559.239 551.293)">
<stop stop-color="#9CCAF8"/>
<stop offset="0.640625" stop-color="white"/>
</radialGradient>
<linearGradient id="paint1_linear_252_577" x1="1370.24" y1="242.5" x2="-43.4509" y2="608.616" gradientUnits="userSpaceOnUse">
<stop stop-color="#6F97FF"/>
<stop offset="1" stop-color="white" stop-opacity="0"/>
</linearGradient>
</defs>
</svg>
