<svg width="1920" height="180" viewBox="0 0 1920 180" fill="none" xmlns="http://www.w3.org/2000/svg">
<path d="M0 0H1920V160C1920 171.046 1911.05 180 1900 180H20C8.95434 180 0 171.046 0 160V0Z" fill="#343A40"/>
<path d="M1191.21 72.0836V129.054H1169.66V72.0836C1169.66 71.5626 1169.91 71.0629 1170.36 70.6945C1170.81 70.3261 1171.42 70.1191 1172.05 70.1191H1188.82C1189.45 70.1191 1190.06 70.3261 1190.51 70.6945C1190.96 71.0629 1191.21 71.5626 1191.21 72.0836Z" fill="#F4644D"/>
<path d="M1108.35 105.48V129.054H1086.79V105.48C1086.79 104.959 1087.04 104.459 1087.49 104.091C1087.94 103.723 1088.55 103.516 1089.19 103.516H1105.95C1106.59 103.516 1107.2 103.723 1107.64 104.091C1108.09 104.459 1108.35 104.959 1108.35 105.48Z" fill="#54C1ED"/>
<path d="M1163.59 89.7614V129.051H1142.03V89.7614C1142.03 89.2404 1142.29 88.7407 1142.73 88.3723C1143.18 88.0038 1143.79 87.7969 1144.43 87.7969H1161.19C1161.83 87.7969 1162.44 88.0038 1162.89 88.3723C1163.34 88.7407 1163.59 89.2404 1163.59 89.7614Z" fill="#FFC443"/>
<path d="M1135.97 79.9391V129.052H1114.41V79.9391C1114.41 79.4181 1114.66 78.9184 1115.11 78.55C1115.56 78.1816 1116.17 77.9746 1116.81 77.9746H1133.57C1134.21 77.9746 1134.82 78.1816 1135.27 78.55C1135.71 78.9184 1135.97 79.4181 1135.97 79.9391Z" fill="#8BC932"/>
<path d="M1194.2 131.999H1083.8C1083.32 131.999 1082.86 131.843 1082.53 131.567C1082.19 131.291 1082 130.916 1082 130.525C1082 130.135 1082.19 129.76 1082.53 129.483C1082.86 129.207 1083.32 129.052 1083.8 129.052H1194.2C1194.68 129.052 1195.14 129.207 1195.47 129.483C1195.81 129.76 1196 130.135 1196 130.525C1196 130.916 1195.81 131.291 1195.47 131.567C1195.14 131.843 1194.68 131.999 1194.2 131.999ZM1157.2 70.5132C1156.83 70.5134 1156.47 70.4193 1156.17 70.2439C1155.86 70.0685 1155.63 69.8204 1155.51 69.5337C1155.39 69.2469 1155.37 68.9356 1155.47 68.6425C1155.57 68.3494 1155.78 68.0889 1156.07 67.8969L1175.98 54.6125C1176.35 54.3675 1176.82 54.2526 1177.29 54.2931C1177.76 54.3337 1178.2 54.5262 1178.5 54.8286C1178.8 55.1311 1178.94 55.5187 1178.89 55.9066C1178.84 56.2945 1178.61 56.6511 1178.24 56.8982L1158.34 70.1828C1158.02 70.3967 1157.62 70.5135 1157.2 70.5132ZM1100.4 84.6323C1100.06 84.6322 1099.72 84.5498 1099.43 84.3951C1099.14 84.2403 1098.91 84.0198 1098.76 83.7602C1098.62 83.5006 1098.58 83.2129 1098.63 82.9319C1098.68 82.6509 1098.83 82.3886 1099.07 82.1767L1120.45 62.5668C1120.6 62.4225 1120.79 62.3051 1121.01 62.2212C1121.22 62.1374 1121.45 62.0886 1121.68 62.0779C1121.92 62.0671 1122.16 62.0945 1122.38 62.1585C1122.6 62.2224 1122.81 62.3218 1122.98 62.4508C1123.16 62.5797 1123.3 62.7359 1123.4 62.9102C1123.51 63.0846 1123.57 63.2738 1123.58 63.467C1123.59 63.6602 1123.56 63.8536 1123.48 64.0362C1123.4 64.2188 1123.28 64.387 1123.12 64.5313L1101.74 84.1412C1101.58 84.2959 1101.37 84.4197 1101.14 84.5043C1100.91 84.589 1100.66 84.6326 1100.4 84.6323ZM1148.42 70.5136C1148.15 70.5135 1147.88 70.4638 1147.64 70.3682L1129.06 63.0571C1128.63 62.8881 1128.3 62.586 1128.14 62.2174C1127.99 61.8487 1128.01 61.4437 1128.22 61.0913C1128.43 60.739 1128.79 60.4682 1129.24 60.3386C1129.69 60.209 1130.19 60.2311 1130.62 60.4001L1149.2 67.7114C1149.56 67.8558 1149.86 68.0984 1150.04 68.3993C1150.21 68.7002 1150.26 69.0417 1150.17 69.3675C1150.08 69.6934 1149.86 69.9843 1149.54 70.1926C1149.22 70.4008 1148.82 70.514 1148.42 70.5136Z" fill="#84828E"/>
<path d="M1097.57 90.2545C1100.21 90.2545 1102.36 88.4954 1102.36 86.3255C1102.36 84.1556 1100.21 82.3965 1097.57 82.3965C1094.92 82.3965 1092.78 84.1556 1092.78 86.3255C1092.78 88.4954 1094.92 90.2545 1097.57 90.2545Z" fill="#54C1ED"/>
<path d="M1125.19 64.7154C1127.83 64.7154 1129.98 62.9564 1129.98 60.7864C1129.98 58.6165 1127.83 56.8574 1125.19 56.8574C1122.54 56.8574 1120.4 58.6165 1120.4 60.7864C1120.4 62.9564 1122.54 64.7154 1125.19 64.7154Z" fill="#8BC932"/>
<path d="M1180.43 56.858C1183.08 56.858 1185.22 55.0989 1185.22 52.929C1185.22 50.7591 1183.08 49 1180.43 49C1177.79 49 1175.64 50.7591 1175.64 52.929C1175.64 55.0989 1177.79 56.858 1180.43 56.858Z" fill="#F4644D"/>
<path d="M1152.81 74.5377C1155.46 74.5377 1157.6 72.7786 1157.6 70.6087C1157.6 68.4388 1155.46 66.6797 1152.81 66.6797C1150.17 66.6797 1148.02 68.4388 1148.02 70.6087C1148.02 72.7786 1150.17 74.5377 1152.81 74.5377Z" fill="#FFC443"/>
<path d="M1093.98 103.516V129.054H1086.79V105.48C1086.79 104.959 1087.04 104.459 1087.49 104.091C1087.94 103.723 1088.55 103.516 1089.19 103.516H1093.98Z" fill="#17AFDE"/>
<path d="M1119.2 77.9746V129.052H1114.41V79.9391C1114.41 79.4181 1114.66 78.9184 1115.11 78.55C1115.56 78.1816 1116.17 77.9746 1116.81 77.9746H1119.2Z" fill="#80B524"/>
<path d="M1146.83 87.7969V129.051H1142.04V89.7614C1142.04 89.2404 1142.29 88.7407 1142.74 88.3723C1143.19 88.0038 1143.79 87.7969 1144.43 87.7969H1146.83Z" fill="#FCB830"/>
<path d="M1174.45 70.1191V129.054H1169.66V72.0836C1169.66 71.5626 1169.91 71.0629 1170.36 70.6945C1170.81 70.3261 1171.42 70.1191 1172.05 70.1191H1174.45Z" fill="#E8533A"/>
<path d="M737.429 68.3636V112H728.203V68.3636H737.429ZM753.925 93.0795V112H744.849V79.2727H753.499V85.0469H753.883C754.607 83.1435 755.822 81.6378 757.526 80.5298C759.231 79.4077 761.298 78.8466 763.727 78.8466C765.999 78.8466 767.981 79.3438 769.671 80.3381C771.362 81.3324 772.675 82.7528 773.613 84.5994C774.55 86.4318 775.019 88.6193 775.019 91.1619V112H765.942V92.7812C765.957 90.7784 765.445 89.2159 764.408 88.0938C763.371 86.9574 761.944 86.3892 760.126 86.3892C758.904 86.3892 757.825 86.652 756.887 87.1776C755.964 87.7031 755.239 88.4702 754.714 89.4787C754.202 90.473 753.94 91.6733 753.925 93.0795ZM811.512 79.2727L800.071 112H789.843L778.402 79.2727H787.99L794.787 102.689H795.127L801.903 79.2727H811.512ZM830.017 112.639C826.651 112.639 823.753 111.957 821.324 110.594C818.909 109.216 817.049 107.27 815.742 104.756C814.435 102.227 813.782 99.2372 813.782 95.7855C813.782 92.419 814.435 89.4645 815.742 86.9219C817.049 84.3793 818.888 82.3977 821.26 80.9773C823.647 79.5568 826.445 78.8466 829.655 78.8466C831.814 78.8466 833.824 79.1946 835.685 79.8906C837.56 80.5724 839.194 81.6023 840.586 82.9801C841.992 84.358 843.086 86.0909 843.867 88.179C844.648 90.2528 845.039 92.6818 845.039 95.4659V97.9588H817.404V92.3338H836.495C836.495 91.027 836.211 89.8693 835.642 88.8608C835.074 87.8523 834.286 87.0639 833.277 86.4957C832.283 85.9134 831.125 85.6222 829.804 85.6222C828.426 85.6222 827.205 85.9418 826.14 86.581C825.088 87.206 824.265 88.0511 823.668 89.1165C823.071 90.1676 822.766 91.3395 822.752 92.6321V97.9801C822.752 99.5994 823.05 100.999 823.647 102.178C824.257 103.357 825.117 104.266 826.225 104.905C827.333 105.544 828.647 105.864 830.167 105.864C831.175 105.864 832.098 105.722 832.936 105.438C833.775 105.153 834.492 104.727 835.088 104.159C835.685 103.591 836.14 102.895 836.452 102.071L844.847 102.625C844.421 104.642 843.547 106.403 842.226 107.909C840.919 109.401 839.229 110.565 837.155 111.403C835.096 112.227 832.716 112.639 830.017 112.639ZM878.192 88.6051L869.882 89.1165C869.74 88.4062 869.435 87.767 868.966 87.1989C868.498 86.6165 867.88 86.1548 867.113 85.8139C866.36 85.4588 865.458 85.2812 864.407 85.2812C863 85.2812 861.814 85.5795 860.848 86.1761C859.882 86.7585 859.4 87.5398 859.4 88.5199C859.4 89.3011 859.712 89.9616 860.337 90.5014C860.962 91.0412 862.034 91.4744 863.554 91.8011L869.478 92.9943C872.659 93.6477 875.032 94.6989 876.594 96.1477C878.157 97.5966 878.938 99.5 878.938 101.858C878.938 104.003 878.306 105.885 877.042 107.504C875.792 109.124 874.073 110.388 871.885 111.297C869.712 112.192 867.205 112.639 864.364 112.639C860.032 112.639 856.58 111.737 854.009 109.933C851.452 108.115 849.953 105.643 849.513 102.518L858.441 102.05C858.711 103.371 859.364 104.379 860.401 105.075C861.438 105.757 862.766 106.098 864.385 106.098C865.976 106.098 867.255 105.793 868.221 105.182C869.201 104.557 869.698 103.754 869.712 102.774C869.698 101.95 869.35 101.276 868.668 100.75C867.986 100.21 866.935 99.7983 865.515 99.5142L859.847 98.3849C856.651 97.7457 854.272 96.6378 852.709 95.0611C851.161 93.4844 850.387 91.4744 850.387 89.0312C850.387 86.929 850.955 85.1179 852.091 83.598C853.242 82.0781 854.854 80.9062 856.928 80.0824C859.016 79.2585 861.459 78.8466 864.257 78.8466C868.391 78.8466 871.644 79.7202 874.016 81.4673C876.402 83.2145 877.794 85.5937 878.192 88.6051ZM902.061 79.2727V86.0909H882.352V79.2727H902.061ZM886.827 71.4318H895.903V101.943C895.903 102.781 896.031 103.435 896.287 103.903C896.543 104.358 896.898 104.678 897.352 104.862C897.821 105.047 898.361 105.139 898.972 105.139C899.398 105.139 899.824 105.104 900.25 105.033C900.676 104.947 901.003 104.884 901.23 104.841L902.658 111.595C902.203 111.737 901.564 111.901 900.74 112.085C899.916 112.284 898.915 112.405 897.736 112.447C895.548 112.533 893.631 112.241 891.983 111.574C890.349 110.906 889.078 109.869 888.169 108.463C887.26 107.057 886.813 105.281 886.827 103.136V71.4318ZM908.847 68.3636H920.225L932.242 97.6818H932.754L944.771 68.3636H956.148V112H947.2V83.598H946.837L935.545 111.787H929.451L918.158 83.4915H917.796V112H908.847V68.3636ZM972.912 112.618C970.824 112.618 968.963 112.256 967.329 111.531C965.696 110.793 964.403 109.706 963.451 108.271C962.514 106.822 962.045 105.018 962.045 102.859C962.045 101.041 962.379 99.5142 963.047 98.2784C963.714 97.0426 964.623 96.0483 965.774 95.2955C966.924 94.5426 968.231 93.9744 969.694 93.5909C971.172 93.2074 972.72 92.9375 974.339 92.7812C976.243 92.5824 977.777 92.3977 978.941 92.2273C980.106 92.0426 980.951 91.7727 981.477 91.4176C982.002 91.0625 982.265 90.5369 982.265 89.8409V89.7131C982.265 88.3636 981.839 87.3196 980.987 86.581C980.149 85.8423 978.956 85.473 977.407 85.473C975.774 85.473 974.474 85.8352 973.508 86.5597C972.542 87.2699 971.903 88.1648 971.591 89.2443L963.196 88.5625C963.622 86.5739 964.46 84.8551 965.71 83.4062C966.96 81.9432 968.572 80.821 970.547 80.0398C972.535 79.2443 974.836 78.8466 977.45 78.8466C979.268 78.8466 981.008 79.0597 982.67 79.4858C984.346 79.9119 985.831 80.5724 987.123 81.4673C988.43 82.3622 989.46 83.5128 990.213 84.919C990.966 86.3111 991.342 87.9801 991.342 89.9261V112H982.734V107.462H982.478C981.953 108.484 981.25 109.386 980.369 110.168C979.488 110.935 978.43 111.538 977.194 111.979C975.958 112.405 974.531 112.618 972.912 112.618ZM975.511 106.354C976.846 106.354 978.025 106.091 979.048 105.565C980.071 105.026 980.873 104.301 981.456 103.392C982.038 102.483 982.329 101.453 982.329 100.303V96.8295C982.045 97.0142 981.654 97.1847 981.157 97.3409C980.674 97.483 980.127 97.6179 979.517 97.7457C978.906 97.8594 978.295 97.9659 977.684 98.0653C977.074 98.1506 976.52 98.2287 976.022 98.2997C974.957 98.456 974.027 98.7045 973.231 99.0455C972.436 99.3864 971.818 99.848 971.377 100.43C970.937 100.999 970.717 101.709 970.717 102.561C970.717 103.797 971.164 104.741 972.059 105.395C972.968 106.034 974.119 106.354 975.511 106.354ZM1015.79 79.2727V86.0909H996.083V79.2727H1015.79ZM1000.56 71.4318H1009.63V101.943C1009.63 102.781 1009.76 103.435 1010.02 103.903C1010.27 104.358 1010.63 104.678 1011.08 104.862C1011.55 105.047 1012.09 105.139 1012.7 105.139C1013.13 105.139 1013.55 105.104 1013.98 105.033C1014.41 104.947 1014.73 104.884 1014.96 104.841L1016.39 111.595C1015.93 111.737 1015.29 111.901 1014.47 112.085C1013.65 112.284 1012.65 112.405 1011.47 112.447C1009.28 112.533 1007.36 112.241 1005.71 111.574C1004.08 110.906 1002.81 109.869 1001.9 108.463C1000.99 107.057 1000.54 105.281 1000.56 103.136V71.4318ZM1036.27 112.639C1032.9 112.639 1030 111.957 1027.57 110.594C1025.16 109.216 1023.3 107.27 1021.99 104.756C1020.69 102.227 1020.03 99.2372 1020.03 95.7855C1020.03 92.419 1020.69 89.4645 1021.99 86.9219C1023.3 84.3793 1025.14 82.3977 1027.51 80.9773C1029.9 79.5568 1032.69 78.8466 1035.91 78.8466C1038.06 78.8466 1040.07 79.1946 1041.94 79.8906C1043.81 80.5724 1045.44 81.6023 1046.84 82.9801C1048.24 84.358 1049.34 86.0909 1050.12 88.179C1050.9 90.2528 1051.29 92.6818 1051.29 95.4659V97.9588H1023.65V92.3338H1042.74C1042.74 91.027 1042.46 89.8693 1041.89 88.8608C1041.32 87.8523 1040.54 87.0639 1039.53 86.4957C1038.53 85.9134 1037.38 85.6222 1036.05 85.6222C1034.68 85.6222 1033.45 85.9418 1032.39 86.581C1031.34 87.206 1030.51 88.0511 1029.92 89.1165C1029.32 90.1676 1029.02 91.3395 1029 92.6321V97.9801C1029 99.5994 1029.3 100.999 1029.9 102.178C1030.51 103.357 1031.37 104.266 1032.47 104.905C1033.58 105.544 1034.9 105.864 1036.42 105.864C1037.43 105.864 1038.35 105.722 1039.19 105.438C1040.02 105.153 1040.74 104.727 1041.34 104.159C1041.94 103.591 1042.39 102.895 1042.7 102.071L1051.1 102.625C1050.67 104.642 1049.8 106.403 1048.48 107.909C1047.17 109.401 1045.48 110.565 1043.41 111.403C1041.35 112.227 1038.97 112.639 1036.27 112.639Z" fill="white"/>
</svg>
