<svg width="1920" height="1024" viewBox="0 0 1920 1024" fill="none" xmlns="http://www.w3.org/2000/svg">
<rect width="1920" height="1024" fill="#343A40"/>
<path d="M1110.18 552.19V715.551H1047.97V552.19C1047.97 550.696 1048.7 549.263 1050 548.207C1051.29 547.15 1053.05 546.557 1054.88 546.557H1103.26C1105.1 546.557 1106.86 547.15 1108.15 548.207C1109.45 549.263 1110.18 550.696 1110.18 552.19Z" fill="#F4644D"/>
<path d="M871.03 647.951V715.549H808.824V647.951C808.824 646.457 809.552 645.025 810.849 643.968C812.145 642.912 813.903 642.318 815.736 642.318H864.118C865.951 642.318 867.709 642.912 869.006 643.968C870.302 645.025 871.03 646.457 871.03 647.951Z" fill="#54C1ED"/>
<path d="M1030.46 602.885V715.548H968.256V602.885C968.256 601.391 968.984 599.958 970.28 598.902C971.576 597.845 973.335 597.252 975.168 597.252H1023.55C1025.38 597.252 1027.14 597.845 1028.44 598.902C1029.73 599.958 1030.46 601.391 1030.46 602.885Z" fill="#FFC443"/>
<path d="M950.745 574.721V715.549H888.539V574.721C888.539 573.227 889.267 571.794 890.563 570.738C891.86 569.681 893.618 569.088 895.451 569.088H943.833C945.666 569.088 947.424 569.681 948.721 570.738C950.017 571.794 950.745 573.227 950.745 574.721Z" fill="#8BC932"/>
<path d="M1118.82 723.998H800.184C798.809 723.998 797.49 723.553 796.518 722.761C795.546 721.969 795 720.894 795 719.774C795 718.653 795.546 717.578 796.518 716.786C797.49 715.994 798.809 715.549 800.184 715.549H1118.82C1120.19 715.549 1121.51 715.994 1122.48 716.786C1123.45 717.578 1124 718.653 1124 719.774C1124 720.894 1123.45 721.969 1122.48 722.761C1121.51 723.553 1120.19 723.998 1118.82 723.998ZM1012.04 547.691C1010.97 547.692 1009.92 547.422 1009.05 546.919C1008.17 546.416 1007.51 545.705 1007.15 544.883C1006.79 544.06 1006.75 543.168 1007.04 542.327C1007.33 541.487 1007.93 540.74 1008.76 540.189L1066.21 502.097C1067.28 501.394 1068.64 501.065 1070.01 501.181C1071.37 501.297 1072.62 501.849 1073.49 502.717C1074.36 503.584 1074.76 504.695 1074.63 505.808C1074.49 506.92 1073.82 507.942 1072.75 508.651L1015.3 546.744C1014.38 547.357 1013.23 547.692 1012.04 547.691ZM848.113 588.177C847.113 588.177 846.134 587.941 845.294 587.497C844.455 587.053 843.791 586.421 843.382 585.677C842.974 584.932 842.839 584.107 842.993 583.302C843.147 582.496 843.584 581.744 844.251 581.136L905.954 524.905C906.408 524.492 906.957 524.155 907.571 523.915C908.184 523.674 908.85 523.534 909.529 523.503C910.209 523.473 910.89 523.551 911.532 523.735C912.174 523.918 912.766 524.203 913.274 524.573C913.781 524.943 914.194 525.39 914.489 525.89C914.785 526.39 914.956 526.933 914.994 527.487C915.032 528.041 914.935 528.595 914.71 529.119C914.485 529.643 914.136 530.125 913.682 530.538L851.979 586.769C851.493 587.213 850.898 587.568 850.231 587.81C849.565 588.053 848.843 588.178 848.113 588.177ZM986.678 547.693C985.903 547.692 985.138 547.55 984.44 547.276L930.82 526.311C929.58 525.827 928.627 524.961 928.171 523.903C927.715 522.846 927.793 521.685 928.388 520.675C928.982 519.664 930.045 518.888 931.342 518.516C932.639 518.144 934.064 518.208 935.304 518.693L988.925 539.657C989.985 540.071 990.842 540.767 991.353 541.63C991.864 542.493 992.001 543.472 991.74 544.406C991.478 545.341 990.835 546.175 989.915 546.772C988.996 547.369 987.854 547.694 986.678 547.693Z" fill="#84828E"/>
<path d="M839.927 604.298C847.562 604.298 853.751 599.254 853.751 593.032C853.751 586.81 847.562 581.766 839.927 581.766C832.293 581.766 826.104 586.81 826.104 593.032C826.104 599.254 832.293 604.298 839.927 604.298Z" fill="#54C1ED"/>
<path d="M919.642 531.064C927.276 531.064 933.465 526.02 933.465 519.798C933.465 513.575 927.276 508.531 919.642 508.531C912.007 508.531 905.818 513.575 905.818 519.798C905.818 526.02 912.007 531.064 919.642 531.064Z" fill="#8BC932"/>
<path d="M1079.07 508.533C1086.71 508.533 1092.9 503.488 1092.9 497.266C1092.9 491.044 1086.71 486 1079.07 486C1071.44 486 1065.25 491.044 1065.25 497.266C1065.25 503.488 1071.44 508.533 1079.07 508.533Z" fill="#F4644D"/>
<path d="M999.359 559.232C1006.99 559.232 1013.18 554.188 1013.18 547.965C1013.18 541.743 1006.99 536.699 999.359 536.699C991.724 536.699 985.535 541.743 985.535 547.965C985.535 554.188 991.724 559.232 999.359 559.232Z" fill="#FFC443"/>
<path d="M829.56 642.318V715.549H808.824V647.951C808.824 646.457 809.552 645.025 810.849 643.968C812.145 642.912 813.903 642.318 815.736 642.318H829.56Z" fill="#17AFDE"/>
<path d="M902.361 569.088V715.549H888.537V574.721C888.537 573.227 889.265 571.794 890.562 570.738C891.858 569.681 893.616 569.088 895.449 569.088H902.361Z" fill="#80B524"/>
<path d="M982.081 597.252V715.548H968.258V602.885C968.258 601.391 968.986 599.958 970.282 598.902C971.578 597.845 973.336 597.252 975.17 597.252H982.081Z" fill="#FCB830"/>
<path d="M1061.79 546.557V715.551H1047.97V552.19C1047.97 550.696 1048.7 549.263 1050 548.207C1051.29 547.15 1053.05 546.557 1054.88 546.557H1061.79Z" fill="#E8533A"/>
<path d="M573.493 337.727V449H549.967V337.727H573.493ZM615.56 400.753V449H592.414V365.545H614.473V380.27H615.451C617.298 375.416 620.395 371.576 624.742 368.751C629.089 365.89 634.359 364.459 640.553 364.459C646.348 364.459 651.401 365.727 655.711 368.262C660.022 370.798 663.372 374.42 665.763 379.129C668.154 383.801 669.349 389.379 669.349 395.863V449H646.203V399.992C646.24 394.885 644.936 390.901 642.291 388.039C639.647 385.141 636.007 383.692 631.371 383.692C628.256 383.692 625.503 384.363 623.112 385.703C620.758 387.043 618.91 388.999 617.57 391.571C616.266 394.106 615.596 397.167 615.56 400.753ZM762.407 365.545L733.23 449H707.151L677.974 365.545H702.424L719.756 425.257H720.625L737.903 365.545H762.407ZM809.594 450.63C801.01 450.63 793.621 448.891 787.427 445.414C781.269 441.901 776.524 436.938 773.192 430.527C769.859 424.08 768.193 416.455 768.193 407.653C768.193 399.069 769.859 391.534 773.192 385.051C776.524 378.567 781.215 373.514 787.264 369.892C793.349 366.27 800.485 364.459 808.671 364.459C814.176 364.459 819.302 365.346 824.047 367.121C828.828 368.86 832.994 371.486 836.543 374.999C840.129 378.513 842.918 382.932 844.91 388.256C846.903 393.545 847.899 399.739 847.899 406.838V413.195H777.43V398.851H826.111C826.111 395.519 825.387 392.567 823.938 389.995C822.489 387.423 820.479 385.413 817.907 383.964C815.372 382.479 812.42 381.737 809.051 381.737C805.538 381.737 802.422 382.551 799.706 384.181C797.025 385.775 794.925 387.93 793.403 390.647C791.882 393.327 791.103 396.316 791.067 399.612V413.249C791.067 417.379 791.828 420.946 793.349 423.953C794.907 426.959 797.098 429.277 799.923 430.907C802.748 432.537 806.099 433.352 809.975 433.352C812.546 433.352 814.901 432.99 817.038 432.266C819.175 431.541 821.004 430.455 822.525 429.006C824.047 427.557 825.206 425.782 826.003 423.681L847.41 425.094C846.323 430.237 844.095 434.729 840.727 438.568C837.394 442.371 833.084 445.342 827.796 447.479C822.544 449.58 816.476 450.63 809.594 450.63ZM932.44 389.343L911.25 390.647C910.888 388.836 910.109 387.206 908.914 385.757C907.719 384.272 906.143 383.095 904.187 382.225C902.267 381.32 899.967 380.867 897.287 380.867C893.701 380.867 890.676 381.628 888.213 383.149C885.75 384.634 884.519 386.626 884.519 389.126C884.519 391.118 885.316 392.802 886.909 394.179C888.503 395.555 891.238 396.66 895.114 397.493L910.218 400.536C918.332 402.202 924.381 404.882 928.365 408.577C932.349 412.271 934.342 417.125 934.342 423.138C934.342 428.607 932.73 433.407 929.506 437.536C926.318 441.665 921.936 444.889 916.358 447.207C910.816 449.489 904.422 450.63 897.178 450.63C886.131 450.63 877.329 448.33 870.773 443.73C864.253 439.093 860.431 432.791 859.309 424.822L882.074 423.627C882.762 426.995 884.428 429.567 887.072 431.342C889.717 433.081 893.103 433.95 897.233 433.95C901.289 433.95 904.549 433.171 907.012 431.614C909.512 430.02 910.779 427.973 910.816 425.474C910.779 423.373 909.892 421.653 908.153 420.312C906.415 418.936 903.734 417.886 900.112 417.161L885.66 414.282C877.51 412.652 871.443 409.826 867.458 405.806C863.51 401.785 861.536 396.66 861.536 390.43C861.536 385.069 862.985 380.451 865.883 376.575C868.817 372.699 872.928 369.711 878.216 367.61C883.541 365.509 889.771 364.459 896.907 364.459C907.447 364.459 915.742 366.686 921.791 371.142C927.876 375.597 931.426 381.664 932.44 389.343ZM993.306 365.545V382.932H943.048V365.545H993.306ZM954.458 345.551H977.604V423.355C977.604 425.492 977.93 427.158 978.582 428.354C979.234 429.513 980.139 430.328 981.298 430.799C982.494 431.27 983.87 431.505 985.428 431.505C986.514 431.505 987.601 431.414 988.688 431.233C989.774 431.016 990.607 430.853 991.187 430.744L994.827 447.968C993.668 448.33 992.038 448.746 989.937 449.217C987.836 449.724 985.283 450.032 982.276 450.141C976.698 450.358 971.808 449.616 967.607 447.913C963.441 446.211 960.199 443.567 957.881 439.981C955.563 436.395 954.422 431.867 954.458 426.398V345.551ZM1010.61 337.727H1039.62L1070.27 412.489H1071.57L1102.22 337.727H1131.23V449H1108.41V376.575H1107.49L1078.69 448.457H1063.15L1034.35 376.303H1033.43V449H1010.61V337.727ZM1173.97 450.576C1168.65 450.576 1163.9 449.652 1159.74 447.805C1155.57 445.921 1152.28 443.15 1149.85 439.492C1147.46 435.797 1146.27 431.197 1146.27 425.691C1146.27 421.055 1147.12 417.161 1148.82 414.01C1150.52 410.859 1152.84 408.323 1155.77 406.403C1158.71 404.484 1162.04 403.035 1165.77 402.057C1169.54 401.079 1173.49 400.391 1177.61 399.992C1182.47 399.485 1186.38 399.014 1189.35 398.58C1192.32 398.109 1194.48 397.42 1195.82 396.515C1197.16 395.609 1197.83 394.269 1197.83 392.494V392.168C1197.83 388.727 1196.74 386.065 1194.57 384.181C1192.43 382.298 1189.39 381.356 1185.44 381.356C1181.27 381.356 1177.96 382.28 1175.5 384.127C1173.03 385.938 1171.4 388.22 1170.61 390.973L1149.2 389.234C1150.29 384.163 1152.42 379.781 1155.61 376.086C1158.8 372.355 1162.91 369.494 1167.94 367.501C1173.01 365.473 1178.88 364.459 1185.55 364.459C1190.18 364.459 1194.62 365.002 1198.86 366.089C1203.13 367.175 1206.92 368.86 1210.21 371.142C1213.55 373.424 1216.17 376.358 1218.09 379.944C1220.01 383.493 1220.97 387.749 1220.97 392.712V449H1199.02V437.427H1198.37C1197.03 440.035 1195.24 442.335 1192.99 444.327C1190.75 446.283 1188.05 447.823 1184.9 448.946C1181.74 450.032 1178.1 450.576 1173.97 450.576ZM1180.6 434.602C1184.01 434.602 1187.01 433.932 1189.62 432.592C1192.23 431.215 1194.28 429.368 1195.76 427.05C1197.25 424.732 1197.99 422.105 1197.99 419.172V410.315C1197.27 410.786 1196.27 411.221 1195 411.619C1193.77 411.982 1192.38 412.326 1190.82 412.652C1189.26 412.941 1187.7 413.213 1186.14 413.467C1184.59 413.684 1183.17 413.883 1181.91 414.064C1179.19 414.463 1176.82 415.097 1174.79 415.966C1172.76 416.835 1171.19 418.012 1170.06 419.498C1168.94 420.946 1168.38 422.757 1168.38 424.931C1168.38 428.082 1169.52 430.491 1171.8 432.157C1174.12 433.787 1177.05 434.602 1180.6 434.602ZM1283.32 365.545V382.932H1233.06V365.545H1283.32ZM1244.47 345.551H1267.62V423.355C1267.62 425.492 1267.94 427.158 1268.59 428.354C1269.25 429.513 1270.15 430.328 1271.31 430.799C1272.51 431.27 1273.88 431.505 1275.44 431.505C1276.53 431.505 1277.61 431.414 1278.7 431.233C1279.79 431.016 1280.62 430.853 1281.2 430.744L1284.84 447.968C1283.68 448.33 1282.05 448.746 1279.95 449.217C1277.85 449.724 1275.3 450.032 1272.29 450.141C1266.71 450.358 1261.82 449.616 1257.62 447.913C1253.45 446.211 1250.21 443.567 1247.89 439.981C1245.58 436.395 1244.43 431.867 1244.47 426.398V345.551ZM1335.53 450.63C1326.95 450.63 1319.56 448.891 1313.36 445.414C1307.21 441.901 1302.46 436.938 1299.13 430.527C1295.8 424.08 1294.13 416.455 1294.13 407.653C1294.13 399.069 1295.8 391.534 1299.13 385.051C1302.46 378.567 1307.15 373.514 1313.2 369.892C1319.29 366.27 1326.42 364.459 1334.61 364.459C1340.11 364.459 1345.24 365.346 1349.98 367.121C1354.77 368.86 1358.93 371.486 1362.48 374.999C1366.07 378.513 1368.86 382.932 1370.85 388.256C1372.84 393.545 1373.84 399.739 1373.84 406.838V413.195H1303.37V398.851H1352.05C1352.05 395.519 1351.32 392.567 1349.88 389.995C1348.43 387.423 1346.42 385.413 1343.84 383.964C1341.31 382.479 1338.36 381.737 1334.99 381.737C1331.48 381.737 1328.36 382.551 1325.64 384.181C1322.96 385.775 1320.86 387.93 1319.34 390.647C1317.82 393.327 1317.04 396.316 1317 399.612V413.249C1317 417.379 1317.77 420.946 1319.29 423.953C1320.84 426.959 1323.04 429.277 1325.86 430.907C1328.69 432.537 1332.04 433.352 1335.91 433.352C1338.48 433.352 1340.84 432.99 1342.98 432.266C1345.11 431.541 1346.94 430.455 1348.46 429.006C1349.98 427.557 1351.14 425.782 1351.94 423.681L1373.35 425.094C1372.26 430.237 1370.03 434.729 1366.66 438.568C1363.33 442.371 1359.02 445.342 1353.73 447.479C1348.48 449.58 1342.41 450.63 1335.53 450.63Z" fill="white"/>
</svg>
