<svg width="1024" height="1024" viewBox="0 0 1024 1024" fill="none" xmlns="http://www.w3.org/2000/svg">
<path d="M16 912H1008V1008H16V912Z" fill="#AEC4CC"/>
<path d="M16 960H1008V1008H16V960Z" fill="#7F99A5"/>
<path d="M288 252.064V224C288 219.757 286.314 215.687 283.314 212.686C280.313 209.686 276.243 208 272 208C267.757 208 263.687 209.686 260.686 212.686C257.686 215.687 256 219.757 256 224V276.096L264 273.696L288 252.064ZM440.24 130.288L448 134.944V80C448 75.7565 446.314 71.6869 443.314 68.6863C440.313 65.6857 436.243 64 432 64C427.757 64 423.687 65.6857 420.686 68.6863C417.686 71.6869 416 75.7565 416 80V136.88L421.296 132.08C423.846 129.793 427.063 128.384 430.473 128.062C433.883 127.739 437.306 128.52 440.24 130.288ZM608 218.496V176C608 171.757 606.314 167.687 603.314 164.686C600.313 161.686 596.243 160 592 160C587.757 160 583.687 161.686 580.686 164.686C577.686 167.687 576 171.757 576 176V211.744L594.176 222.64L608 218.496ZM768 164.224V128C768 123.757 766.314 119.687 763.314 116.686C760.313 113.686 756.243 112 752 112C747.757 112 743.687 113.686 740.686 116.686C737.686 119.687 736 123.757 736 128V180.096L745.6 177.216L768 164.224Z" fill="#F9BD46"/>
<path d="M865.599 107.617L767.999 164.225L745.599 177.217L735.999 180.097L607.999 218.497L594.175 222.641L575.999 211.745L447.999 134.945L440.239 130.289C437.303 128.525 433.877 127.75 430.467 128.078C427.056 128.407 423.842 129.821 421.295 132.113L415.999 136.913L287.999 252.113L263.999 273.745L255.999 276.145L150.607 307.729C156.688 315.903 159.98 325.814 159.999 336.001C159.999 336.817 159.791 337.601 159.759 338.401L279.999 302.305L433.887 163.809L583.743 253.729C585.649 254.87 587.771 255.601 589.975 255.876C592.179 256.152 594.416 255.965 596.543 255.329L758.399 206.785L883.359 134.401C874.525 127.791 868.25 118.328 865.599 107.617Z" fill="#ED9B2F"/>
<path d="M150.608 307.728C143.939 298.579 134.249 292.081 123.252 289.385C112.256 286.688 100.66 287.966 90.5135 292.992C80.3676 298.018 72.3249 306.468 67.807 316.851C63.2891 327.233 62.5868 338.878 65.8242 349.728C69.0617 360.578 76.0304 369.934 85.4988 376.143C94.9672 382.352 106.326 385.014 117.567 383.658C128.808 382.303 139.208 377.017 146.929 368.735C154.65 360.453 159.195 349.709 159.76 338.4C159.76 337.584 160 336.8 160 336C159.981 325.813 156.689 315.902 150.608 307.728ZM912 48.0003C899.27 48.0003 887.061 53.0574 878.059 62.0592C869.058 71.0609 864 83.2699 864 96.0003C864.048 99.9238 864.585 103.826 865.6 107.616C867.779 116.351 872.37 124.296 878.848 130.546C885.327 136.796 893.432 141.098 902.239 142.961C911.046 144.824 920.199 144.173 928.654 141.082C937.109 137.991 944.524 132.586 950.053 125.482C955.582 118.378 959.002 109.863 959.922 100.908C960.842 91.9535 959.226 82.9205 955.258 74.8406C951.29 66.7606 945.13 59.9593 937.481 55.2133C929.832 50.4673 921.002 47.9678 912 48.0003Z" fill="#F9BD46"/>
<path d="M288 368C288 363.757 286.314 359.687 283.314 356.686C280.313 353.686 276.243 352 272 352C267.757 352 263.687 353.686 260.686 356.686C257.686 359.687 256 363.757 256 368V448H288V368ZM608 320C608 315.757 606.314 311.687 603.314 308.686C600.313 305.686 596.243 304 592 304C587.757 304 583.687 305.686 580.686 308.686C577.686 311.687 576 315.757 576 320V400H608V320Z" fill="#E55353"/>
<path d="M128 448C128 443.757 126.314 439.687 123.314 436.686C120.313 433.686 116.243 432 112 432C107.757 432 103.687 433.686 100.686 436.686C97.6857 439.687 96 443.757 96 448V512H128V448ZM448 240C448 235.757 446.314 231.687 443.314 228.686C440.313 225.686 436.243 224 432 224C427.757 224 423.687 225.686 420.686 228.686C417.686 231.687 416 235.757 416 240V304H448V240Z" fill="#5DC169"/>
<path d="M768 256C768 251.757 766.314 247.687 763.314 244.686C760.313 241.686 756.243 240 752 240C747.757 240 743.687 241.686 740.686 244.686C737.686 247.687 736 251.757 736 256V320H768V256Z" fill="#E55353"/>
<path d="M928 208C928 203.757 926.314 199.687 923.314 196.686C920.313 193.686 916.243 192 912 192C907.757 192 903.687 193.686 900.686 196.686C897.686 199.687 896 203.757 896 208V272H928V208Z" fill="#5DC169"/>
<path d="M256 448H224V592H320V448H288H256ZM576 400H544V592H640V400H608H576Z" fill="#E57676"/>
<path d="M96 512H64V656H160V512H128H96ZM416 304H384V496H480V304H448H416Z" fill="#77D888"/>
<path d="M736 320H704V512H800V320H768H736Z" fill="#E57676"/>
<path d="M928 272H864V416H960V272H928Z" fill="#77D888"/>
<path d="M64 656V784H96V848C96 852.243 97.6857 856.313 100.686 859.314C103.687 862.314 107.757 864 112 864C116.243 864 120.313 862.314 123.314 859.314C126.314 856.313 128 852.243 128 848V784H160V656H64Z" fill="#5DC169"/>
<path d="M224 592V720H256V800C256 804.243 257.686 808.313 260.686 811.314C263.687 814.314 267.757 816 272 816C276.243 816 280.313 814.314 283.314 811.314C286.314 808.313 288 804.243 288 800V720H320V592H224Z" fill="#E55353"/>
<path d="M384 496V624H416V688C416 692.243 417.686 696.313 420.686 699.314C423.687 702.314 427.757 704 432 704C436.243 704 440.313 702.314 443.314 699.314C446.314 696.313 448 692.243 448 688V624H480V496H384Z" fill="#5DC169"/>
<path d="M544 592V720H576V800C576 804.243 577.686 808.313 580.686 811.314C583.687 814.314 587.757 816 592 816C596.243 816 600.313 814.314 603.314 811.314C606.314 808.313 608 804.243 608 800V720H640V592H544ZM704 512V640H736V720C736 724.243 737.686 728.313 740.686 731.314C743.687 734.314 747.757 736 752 736C756.243 736 760.313 734.314 763.314 731.314C766.314 728.313 768 724.243 768 720V640H800V512H704Z" fill="#E55353"/>
<path d="M864 416V544H896V656C896 660.243 897.686 664.313 900.686 667.314C903.687 670.314 907.757 672 912 672C916.243 672 920.313 670.314 923.314 667.314C926.314 664.313 928 660.243 928 656V544H960V416H864Z" fill="#5DC169"/>
</svg>
