<svg width="513" height="512" viewBox="0 0 513 512" fill="none" xmlns="http://www.w3.org/2000/svg">
<path d="M128.872 128.04V110.431C128.872 107.769 127.909 105.215 126.195 103.332C124.481 101.45 122.157 100.392 119.733 100.392C117.309 100.392 114.985 101.45 113.271 103.332C111.557 105.215 110.594 107.769 110.594 110.431V143.119L115.163 141.613L128.872 128.04ZM215.832 51.6315L220.265 54.5529V20.0783C220.265 17.4157 219.302 14.8622 217.588 12.9795C215.874 11.0968 213.549 10.0391 211.126 10.0391C208.702 10.0391 206.377 11.0968 204.663 12.9795C202.949 14.8622 201.986 17.4157 201.986 20.0783V55.7677L205.011 52.7559C206.468 51.3208 208.305 50.4371 210.253 50.2347C212.201 50.0323 214.157 50.5219 215.832 51.6315ZM311.657 106.978V80.3136C311.657 77.651 310.694 75.0975 308.98 73.2148C307.267 71.3321 304.942 70.2744 302.518 70.2744C300.094 70.2744 297.77 71.3321 296.056 73.2148C294.342 75.0975 293.379 77.651 293.379 80.3136V102.741L303.761 109.578L311.657 106.978ZM403.05 72.9247V50.1959C403.05 47.5334 402.087 44.9798 400.373 43.0971C398.659 41.2144 396.334 40.1567 393.911 40.1567C391.487 40.1567 389.162 41.2144 387.448 43.0971C385.734 44.9798 384.771 47.5334 384.771 50.1959V82.8836L390.255 81.0766L403.05 72.9247Z" fill="#F9BD46" fill-opacity="0.3"/>
<path d="M458.8 37.4062L403.051 72.925L390.256 81.0768L384.772 82.8839L311.658 106.978L303.762 109.578L293.38 102.741L220.266 54.5532L215.833 51.6318C214.156 50.5248 212.199 50.0386 210.251 50.2446C208.303 50.4507 206.467 51.3381 205.012 52.7763L201.987 55.7881L128.873 128.07L115.164 141.643L110.595 143.149L50.3945 162.967C53.8675 168.095 55.7482 174.314 55.7593 180.706C55.7593 181.218 55.6405 181.71 55.6222 182.212L124.304 159.563L212.205 72.664L297.803 129.084C298.892 129.8 300.104 130.259 301.363 130.432C302.622 130.604 303.899 130.488 305.115 130.088L397.567 99.6293L468.945 54.2119C463.899 50.0643 460.314 44.1265 458.8 37.4062Z" fill="#ED9B2F" fill-opacity="0.3"/>
<path d="M50.394 162.967C46.5842 157.226 41.0495 153.149 34.7681 151.457C28.4867 149.765 21.863 150.567 16.0676 153.72C10.2722 156.874 5.67818 162.176 3.09753 168.691C0.516892 175.205 0.115737 182.512 1.96497 189.319C3.8142 196.127 7.79476 201.998 13.2031 205.894C18.6115 209.789 25.0995 211.46 31.5205 210.609C37.9415 209.759 43.8821 206.442 48.2924 201.246C52.7027 196.049 55.2987 189.307 55.6216 182.212C55.6216 181.7 55.7587 181.208 55.7587 180.706C55.7477 174.314 53.867 168.095 50.394 162.967ZM485.304 0.000196098C478.032 0.000196098 471.058 3.1733 465.916 8.82145C460.774 14.4696 457.886 22.1301 457.886 30.1178C457.913 32.5797 458.22 35.0281 458.8 37.4063C460.044 42.8866 462.666 47.8721 466.367 51.7935C470.068 55.7149 474.697 58.4142 479.728 59.5832C484.758 60.7522 489.987 60.3437 494.816 58.4045C499.645 56.4652 503.881 53.0733 507.039 48.616C510.197 44.1588 512.151 38.8159 512.677 33.1973C513.202 27.5787 512.279 21.9109 510.013 16.8412C507.746 11.7714 504.227 7.5039 499.858 4.526C495.489 1.54811 490.445 -0.0201823 485.304 0.000196098Z" fill="#F9BD46" fill-opacity="0.3"/>
<path d="M128.872 200.784C128.872 198.121 127.909 195.568 126.195 193.685C124.481 191.802 122.157 190.745 119.733 190.745C117.309 190.745 114.985 191.802 113.271 193.685C111.557 195.568 110.594 198.121 110.594 200.784V250.98H128.872V200.784ZM311.657 170.666C311.657 168.004 310.694 165.45 308.98 163.567C307.267 161.685 304.942 160.627 302.518 160.627C300.094 160.627 297.77 161.685 296.056 163.567C294.342 165.45 293.379 168.004 293.379 170.666V220.862H311.657V170.666Z" fill="#E55353" fill-opacity="0.3"/>
<path d="M37.4797 250.981C37.4797 248.318 36.5168 245.765 34.8029 243.882C33.0889 241.999 30.7643 240.941 28.3404 240.941C25.9165 240.941 23.5919 241.999 21.878 243.882C20.1641 245.765 19.2012 248.318 19.2012 250.981V291.138H37.4797V250.981ZM220.265 120.471C220.265 117.808 219.302 115.255 217.588 113.372C215.874 111.489 213.549 110.432 211.125 110.432C208.702 110.432 206.377 111.489 204.663 113.372C202.949 115.255 201.986 117.808 201.986 120.471V160.628H220.265V120.471Z" fill="#5DC169" fill-opacity="0.3"/>
<path d="M403.05 130.51C403.05 127.847 402.087 125.294 400.373 123.411C398.659 121.528 396.335 120.471 393.911 120.471C391.487 120.471 389.162 121.528 387.448 123.411C385.734 125.294 384.771 127.847 384.771 130.51V170.667H403.05V130.51Z" fill="#E55353" fill-opacity="0.3"/>
<path d="M494.443 100.393C494.443 97.7302 493.48 95.1767 491.766 93.2939C490.052 91.4112 487.727 90.3535 485.303 90.3535C482.879 90.3535 480.555 91.4112 478.841 93.2939C477.127 95.1767 476.164 97.7302 476.164 100.393V140.55H494.443V100.393Z" fill="#5DC169" fill-opacity="0.3"/>
<path d="M110.595 250.981H92.3164V341.334H147.152V250.981H128.873H110.595ZM293.38 220.863H275.101V341.334H329.937V220.863H311.658H293.38Z" fill="#E57676" fill-opacity="0.3"/>
<path d="M19.2023 291.137H0.923828V381.49H55.7593V291.137H37.4808H19.2023ZM201.987 160.627H183.709V281.098H238.544V160.627H220.266H201.987Z" fill="#77D888" fill-opacity="0.3"/>
<path d="M384.771 170.666H366.492V291.137H421.328V170.666H403.049H384.771Z" fill="#E57676" fill-opacity="0.3"/>
<path d="M494.442 140.549H457.885V230.902H512.72V140.549H494.442Z" fill="#77D888" fill-opacity="0.3"/>
<path d="M0.923828 381.49V461.804H19.2023V501.961C19.2023 504.623 20.1652 507.177 21.8792 509.06C23.5931 510.942 25.9177 512 28.3416 512C30.7655 512 33.0901 510.942 34.804 509.06C36.518 507.177 37.4808 504.623 37.4808 501.961V461.804H55.7593V381.49H0.923828Z" fill="#5DC169" fill-opacity="0.3"/>
<path d="M92.3164 341.334V421.648H110.595V471.844C110.595 474.506 111.558 477.06 113.272 478.943C114.986 480.825 117.31 481.883 119.734 481.883C122.158 481.883 124.483 480.825 126.197 478.943C127.911 477.06 128.873 474.506 128.873 471.844V421.648H147.152V341.334H92.3164Z" fill="#E55353" fill-opacity="0.3"/>
<path d="M183.707 281.098V361.411H201.986V401.568C201.986 404.231 202.948 406.784 204.662 408.667C206.376 410.55 208.701 411.607 211.125 411.607C213.549 411.607 215.873 410.55 217.587 408.667C219.301 406.784 220.264 404.231 220.264 401.568V361.411H238.543V281.098H183.707Z" fill="#5DC169" fill-opacity="0.3"/>
<path d="M275.1 341.333V421.647H293.378V471.843C293.378 474.505 294.341 477.059 296.055 478.941C297.769 480.824 300.093 481.882 302.517 481.882C304.941 481.882 307.266 480.824 308.98 478.941C310.694 477.059 311.657 474.505 311.657 471.843V421.647H329.935V341.333H275.1ZM366.492 291.137V371.45H384.771V421.647C384.771 424.309 385.734 426.863 387.447 428.745C389.161 430.628 391.486 431.686 393.91 431.686C396.334 431.686 398.658 430.628 400.372 428.745C402.086 426.863 403.049 424.309 403.049 421.647V371.45H421.328V291.137H366.492Z" fill="#E55353" fill-opacity="0.3"/>
<path d="M457.885 230.902V311.216H476.163V381.491C476.163 384.153 477.126 386.707 478.84 388.589C480.554 390.472 482.879 391.53 485.303 391.53C487.726 391.53 490.051 390.472 491.765 388.589C493.479 386.707 494.442 384.153 494.442 381.491V311.216H512.72V230.902H457.885Z" fill="#5DC169" fill-opacity="0.3"/>
</svg>
