<svg width="769" height="512" viewBox="0 0 769 512" fill="none" xmlns="http://www.w3.org/2000/svg">
<path d="M192.898 128.04V110.431C192.898 107.769 191.454 105.215 188.883 103.332C186.312 101.45 182.825 100.392 179.189 100.392C175.554 100.392 172.067 101.45 169.496 103.332C166.925 105.215 165.48 107.769 165.48 110.431V143.119L172.335 141.613L192.898 128.04ZM323.338 51.6315L329.987 54.5529V20.0783C329.987 17.4157 328.543 14.8622 325.972 12.9795C323.401 11.0968 319.914 10.0391 316.278 10.0391C312.642 10.0391 309.155 11.0968 306.584 12.9795C304.014 14.8622 302.569 17.4157 302.569 20.0783V55.7677L307.107 52.7559C309.292 51.3208 312.048 50.4371 314.97 50.2347C317.891 50.0323 320.825 50.5219 323.338 51.6315ZM467.076 106.978V80.3136C467.076 77.651 465.632 75.0975 463.061 73.2148C460.49 71.3321 457.003 70.2744 453.367 70.2744C449.731 70.2744 446.244 71.3321 443.673 73.2148C441.102 75.0975 439.658 77.651 439.658 80.3136V102.741L455.231 109.578L467.076 106.978ZM604.165 72.9247V50.1959C604.165 47.5334 602.72 44.9798 600.149 43.0971C597.578 41.2144 594.092 40.1567 590.456 40.1567C586.82 40.1567 583.333 41.2144 580.762 43.0971C578.191 44.9798 576.747 47.5334 576.747 50.1959V82.8836L584.972 81.0766L604.165 72.9247Z" fill="#F9BD46" fill-opacity="0.3"/>
<path d="M687.79 37.4062L604.166 72.925L584.974 81.0768L576.748 82.8839L467.077 106.978L455.233 109.578L439.66 102.741L329.989 54.5532L323.34 51.6318C320.823 50.5248 317.888 50.0386 314.967 50.2446C312.045 50.4507 309.29 51.3381 307.108 52.7763L302.571 55.7881L192.9 128.07L172.336 141.643L165.482 143.149L75.1816 162.967C80.3911 168.095 83.2122 174.314 83.2288 180.706C83.2288 181.218 83.0505 181.71 83.0231 182.212L186.045 159.563L317.897 72.664L446.295 129.084C447.928 129.8 449.746 130.259 451.634 130.432C453.522 130.604 455.439 130.488 457.262 130.088L595.941 99.6293L703.007 54.2119C695.438 50.0643 690.062 44.1265 687.79 37.4062Z" fill="#ED9B2F" fill-opacity="0.3"/>
<path d="M75.1808 162.967C69.4661 157.226 61.1641 153.149 51.742 151.457C42.3199 149.765 32.3843 150.567 23.6912 153.72C14.9981 156.874 8.10711 162.176 4.23615 168.691C0.365181 175.205 -0.23655 182.512 2.5373 189.319C5.31114 196.127 11.282 201.998 19.3946 205.894C27.5071 209.789 37.2392 211.46 46.8707 210.609C56.5022 209.759 65.413 206.442 72.0284 201.246C78.6438 196.049 82.5379 189.307 83.0223 182.212C83.0223 181.7 83.2279 181.208 83.2279 180.706C83.2114 174.314 80.3903 168.095 75.1808 162.967ZM727.545 0.000196098C716.638 0.000196098 706.177 3.1733 698.464 8.82145C690.752 14.4696 686.419 22.1301 686.419 30.1178C686.459 32.5797 686.92 35.0281 687.789 37.4063C689.656 42.8866 693.589 47.8721 699.14 51.7935C704.691 55.7149 711.636 58.4142 719.182 59.5832C726.728 60.7522 734.57 60.3437 741.814 58.4045C749.058 56.4652 755.411 53.0733 760.149 48.616C764.886 44.1588 767.816 38.8159 768.605 33.1973C769.393 27.5787 768.009 21.9109 764.609 16.8412C761.209 11.7714 755.931 7.5039 749.377 4.526C742.823 1.54811 735.258 -0.0201823 727.545 0.000196098Z" fill="#F9BD46" fill-opacity="0.3"/>
<path d="M192.898 200.784C192.898 198.121 191.454 195.568 188.883 193.685C186.312 191.802 182.825 190.745 179.189 190.745C175.554 190.745 172.067 191.802 169.496 193.685C166.925 195.568 165.48 198.121 165.48 200.784V250.98H192.898V200.784ZM467.076 170.666C467.076 168.004 465.631 165.45 463.061 163.567C460.49 161.685 457.003 160.627 453.367 160.627C449.731 160.627 446.244 161.685 443.673 163.567C441.102 165.45 439.658 168.004 439.658 170.666V220.862H467.076V170.666Z" fill="#E55353" fill-opacity="0.3"/>
<path d="M55.8084 250.981C55.8084 248.318 54.3641 245.765 51.7931 243.882C49.2222 241.999 45.7353 240.941 42.0995 240.941C38.4637 240.941 34.9768 241.999 32.4059 243.882C29.835 245.765 28.3906 248.318 28.3906 250.981V291.138H55.8084V250.981ZM329.986 120.471C329.986 117.808 328.542 115.255 325.971 113.372C323.4 111.489 319.913 110.432 316.277 110.432C312.641 110.432 309.154 111.489 306.583 113.372C304.013 115.255 302.568 117.808 302.568 120.471V160.628H329.986V120.471Z" fill="#5DC169" fill-opacity="0.3"/>
<path d="M604.164 130.51C604.164 127.847 602.72 125.294 600.149 123.411C597.578 121.528 594.091 120.471 590.455 120.471C586.819 120.471 583.332 121.528 580.761 123.411C578.19 125.294 576.746 127.847 576.746 130.51V170.667H604.164V130.51Z" fill="#E55353" fill-opacity="0.3"/>
<path d="M741.254 100.393C741.254 97.7302 739.809 95.1767 737.238 93.2939C734.668 91.4112 731.181 90.3535 727.545 90.3535C723.909 90.3535 720.422 91.4112 717.851 93.2939C715.28 95.1767 713.836 97.7302 713.836 100.393V140.55H741.254V100.393Z" fill="#5DC169" fill-opacity="0.3"/>
<path d="M165.482 250.981H138.064V341.334H220.318V250.981H192.9H165.482ZM439.66 220.863H412.242V341.334H494.495V220.863H467.078H439.66Z" fill="#E57676" fill-opacity="0.3"/>
<path d="M28.3943 291.137H0.976562V381.49H83.2298V291.137H55.8121H28.3943ZM302.572 160.627H275.154V281.098H357.407V160.627H329.99H302.572Z" fill="#77D888" fill-opacity="0.3"/>
<path d="M576.746 170.666H549.328V291.137H631.581V170.666H604.164H576.746Z" fill="#E57676" fill-opacity="0.3"/>
<path d="M741.253 140.549H686.418V230.902H768.671V140.549H741.253Z" fill="#77D888" fill-opacity="0.3"/>
<path d="M0.976562 381.49V461.804H28.3943V501.961C28.3943 504.623 29.8387 507.177 32.4096 509.06C34.9805 510.942 38.4674 512 42.1032 512C45.739 512 49.2259 510.942 51.7968 509.06C54.3678 507.177 55.8121 504.623 55.8121 501.961V461.804H83.2298V381.49H0.976562Z" fill="#5DC169" fill-opacity="0.3"/>
<path d="M138.064 341.334V421.648H165.482V471.844C165.482 474.506 166.927 477.06 169.497 478.943C172.068 480.825 175.555 481.883 179.191 481.883C182.827 481.883 186.314 480.825 188.885 478.943C191.456 477.06 192.9 474.506 192.9 471.844V421.648H220.318V341.334H138.064Z" fill="#E55353" fill-opacity="0.3"/>
<path d="M275.15 281.098V361.411H302.568V401.568C302.568 404.231 304.012 406.784 306.583 408.667C309.154 410.55 312.641 411.607 316.277 411.607C319.913 411.607 323.4 410.55 325.971 408.667C328.542 406.784 329.986 404.231 329.986 401.568V361.411H357.404V281.098H275.15Z" fill="#5DC169" fill-opacity="0.3"/>
<path d="M412.238 341.333V421.647H439.656V471.843C439.656 474.505 441.1 477.059 443.671 478.941C446.242 480.824 449.729 481.882 453.365 481.882C457.001 481.882 460.488 480.824 463.059 478.941C465.629 477.059 467.074 474.505 467.074 471.843V421.647H494.492V341.333H412.238ZM549.327 291.137V371.45H576.745V421.647C576.745 424.309 578.189 426.863 580.76 428.745C583.331 430.628 586.818 431.686 590.454 431.686C594.09 431.686 597.576 430.628 600.147 428.745C602.718 426.863 604.163 424.309 604.163 421.647V371.45H631.58V291.137H549.327Z" fill="#E55353" fill-opacity="0.3"/>
<path d="M686.418 230.902V311.216H713.836V381.491C713.836 384.153 715.28 386.707 717.851 388.589C720.422 390.472 723.909 391.53 727.545 391.53C731.18 391.53 734.667 390.472 737.238 388.589C739.809 386.707 741.253 384.153 741.253 381.491V311.216H768.671V230.902H686.418Z" fill="#5DC169" fill-opacity="0.3"/>
</svg>
