<svg id="Group_2269" data-name="Group 2269" xmlns="http://www.w3.org/2000/svg" width="44.798" height="51.48" viewBox="0 0 44.798 51.48">
  <path id="Rectangle_17" data-name="Rectangle 17" d="M2.488-1.5H32.216A3.992,3.992,0,0,1,36.2,2.488v43.5a3.992,3.992,0,0,1-3.988,3.988H2.488A3.992,3.992,0,0,1-1.5,45.993V2.488A3.992,3.992,0,0,1,2.488-1.5ZM32.216,47.805a1.815,1.815,0,0,0,1.813-1.813V2.488A1.815,1.815,0,0,0,32.216.675H2.488A1.815,1.815,0,0,0,.675,2.488v43.5a1.815,1.815,0,0,0,1.813,1.813Z" transform="translate(1.5 1.5)" fill="#111"/>
  <path id="Path_5" data-name="Path 5" d="M985.3,806h14.187v11.937l-6.98,6.98-7.207-7.207Z" transform="translate(-955.775 -799.178)" fill="#b6adf4"/>
  <path id="Path_5_-_Outline" data-name="Path 5 - Outline" d="M984.885,804.5h14.188a1.088,1.088,0,0,1,1.088,1.088v11.937a1.087,1.087,0,0,1-.318.769l-6.98,6.98a1.088,1.088,0,0,1-1.538,0l-7.207-7.207a1.087,1.087,0,0,1-.318-.769V805.588A1.088,1.088,0,0,1,984.885,804.5Zm13.1,2.175H985.973v10.173l6.119,6.119,5.893-5.893Z" transform="translate(-955.363 -798.765)" fill="#111"/>
  <ellipse id="Ellipse_2" data-name="Ellipse 2" cx="5.5" cy="6" rx="5.5" ry="6" transform="translate(31.234 25.5)" fill="#7768de"/>
  <path id="Ellipse_2_-_Outline" data-name="Ellipse 2 - Outline" d="M5.388-1.5A6.888,6.888,0,1,1-1.5,5.388,6.9,6.9,0,0,1,5.388-1.5Zm0,11.6A4.713,4.713,0,1,0,.675,5.388,4.718,4.718,0,0,0,5.388,10.1Z" transform="translate(31.228 26.153)" fill="#111"/>
</svg>
