<svg xmlns="http://www.w3.org/2000/svg" width="47.599" height="57.359" viewBox="0 0 47.599 57.359">
  <g id="Group_2271" data-name="Group 2271" transform="translate(-1029 -585)">
    <path id="Rectangle_648" data-name="Rectangle 648" d="M2.35-1.5h31.5A3.854,3.854,0,0,1,37.7,2.35v40.6a3.854,3.854,0,0,1-3.85,3.85H2.35a3.854,3.854,0,0,1-3.85-3.85V2.35A3.854,3.854,0,0,1,2.35-1.5Zm31.5,46.2a1.752,1.752,0,0,0,1.75-1.75V2.35A1.752,1.752,0,0,0,33.849.6H2.35A1.752,1.752,0,0,0,.6,2.35v40.6A1.752,1.752,0,0,0,2.35,44.7Z" transform="translate(1030.5 586.5)" fill="#111"/>
    <path id="Path_1625" data-name="Path 1625" d="M2.8,0H14.7a2.8,2.8,0,0,1,2.8,2.8V14.7a2.8,2.8,0,0,1-2.8,2.8H2.8A2.8,2.8,0,0,1,0,14.7V2.8A2.8,2.8,0,0,1,2.8,0Z" transform="translate(1039.17 618.584) rotate(20)" fill="#c2e686"/>
    <path id="Rectangle_649_-_Outline" data-name="Rectangle 649 - Outline" d="M3.85,0h11.9A3.854,3.854,0,0,1,19.6,3.85v11.9a3.854,3.854,0,0,1-3.85,3.85H3.85A3.854,3.854,0,0,1,0,15.75V3.85A3.854,3.854,0,0,1,3.85,0Zm11.9,17.5a1.752,1.752,0,0,0,1.75-1.75V3.85A1.752,1.752,0,0,0,15.75,2.1H3.85A1.752,1.752,0,0,0,2.1,3.85v11.9A1.752,1.752,0,0,0,3.85,17.5Z" transform="translate(1038.542 617.238) rotate(20)" fill="#111"/>
    <path id="Rectangle_650" data-name="Rectangle 650" d="M2.35-1.5h11.9A3.854,3.854,0,0,1,18.1,2.35v11.9a3.854,3.854,0,0,1-3.85,3.85H2.35A3.854,3.854,0,0,1-1.5,14.25V2.35A3.854,3.854,0,0,1,2.35-1.5ZM14.25,16A1.752,1.752,0,0,0,16,14.25V2.35A1.752,1.752,0,0,0,14.25.6H2.35A1.752,1.752,0,0,0,.6,2.35v11.9A1.752,1.752,0,0,0,2.35,16Z" transform="translate(1036.1 599.1)" fill="#111"/>
    <path id="Path_1626" data-name="Path 1626" d="M2.8,0H14.7a2.8,2.8,0,0,1,2.8,2.8V14.7a2.8,2.8,0,0,1-2.8,2.8H2.8A2.8,2.8,0,0,1,0,14.7V2.8A2.8,2.8,0,0,1,2.8,0Z" transform="translate(1058.049 621.049)" fill="#638e1d"/>
    <path id="Rectangle_651_-_Outline" data-name="Rectangle 651 - Outline" d="M2.35-1.5h11.9A3.854,3.854,0,0,1,18.1,2.35v11.9a3.854,3.854,0,0,1-3.85,3.85H2.35A3.854,3.854,0,0,1-1.5,14.25V2.35A3.854,3.854,0,0,1,2.35-1.5ZM14.25,16A1.752,1.752,0,0,0,16,14.25V2.35A1.752,1.752,0,0,0,14.25.6H2.35A1.752,1.752,0,0,0,.6,2.35v11.9A1.752,1.752,0,0,0,2.35,16Z" transform="translate(1058.499 621.499)" fill="#111"/>
    <path id="Path_1624" data-name="Path 1624" d="M.885-3.055H2.392V-6h2.9V-7.241h-2.9v-1.7H5.6v-1.242H.885Z" transform="translate(1041.684 614.284)" fill="#111"/>
    <path id="Path_1627" data-name="Path 1627" d="M6.846-10.182h-1.5V-5.7H5.284L2.207-10.182H.885v7.127H2.392V-7.54h.052l3.1,4.486h1.3Z" transform="translate(1063.384 635.983)" fill="#111"/>
    <path id="Path_1628" data-name="Path 1628" d="M1.507,0H0V7.127H1.507Z" transform="translate(1044.826 626.124) rotate(20)" fill="#111"/>
  </g>
</svg>
