<svg id="Group_2267" data-name="Group 2267" xmlns="http://www.w3.org/2000/svg" width="67.586" height="47.855" viewBox="0 0 67.586 47.855">
  <path id="Rectangle_18" data-name="Rectangle 18" d="M2.488-1.5h31.9a3.992,3.992,0,0,1,3.988,3.988V42.367a3.992,3.992,0,0,1-3.988,3.988H2.488A3.992,3.992,0,0,1-1.5,42.367V2.488A3.992,3.992,0,0,1,2.488-1.5Zm31.9,45.68A1.815,1.815,0,0,0,36.2,42.367V2.488A1.815,1.815,0,0,0,34.391.675H2.488A1.815,1.815,0,0,0,.675,2.488V42.367A1.815,1.815,0,0,0,2.488,44.18Z" transform="translate(1.5 1.5)" fill="#111"/>
  <rect id="Rectangle_20" data-name="Rectangle 20" width="11" height="16" rx="4" transform="translate(16.702 11.875)" fill="#ce8185"/>
  <path id="Rectangle_20_-_Outline" data-name="Rectangle 20 - Outline" d="M2.488-1.5H7.563a3.992,3.992,0,0,1,3.988,3.988V12.639a3.992,3.992,0,0,1-3.988,3.988H2.488A3.992,3.992,0,0,1-1.5,12.639V2.488A3.992,3.992,0,0,1,2.488-1.5ZM7.563,14.452a1.815,1.815,0,0,0,1.813-1.813V2.488A1.815,1.815,0,0,0,7.563.675H2.488A1.815,1.815,0,0,0,.675,2.488V12.639a1.815,1.815,0,0,0,1.813,1.813Z" transform="translate(17.452 12.376)" fill="#111"/>
  <path id="Path_6" data-name="Path 6" d="M1088.046,978.675h-49.459a1.088,1.088,0,1,1,0-2.175h49.459a1.088,1.088,0,0,1,0,2.175Z" transform="translate(-1021.548 -943.872)" fill="#111"/>
  <path id="Path_7" data-name="Path 7" d="M1051.792,978.675h-13.2a1.088,1.088,0,1,1,0-2.175h13.2a1.088,1.088,0,1,1,0,2.175Z" transform="translate(-1021.548 -936.621)" fill="#111"/>
</svg>
