<svg id="Group_2268" data-name="Group 2268" xmlns="http://www.w3.org/2000/svg" width="47.855" height="51.48" viewBox="0 0 47.855 51.48">
  <path id="Rectangle_13" data-name="Rectangle 13" d="M2.488-1.5H32.216A3.992,3.992,0,0,1,36.2,2.488v43.5a3.992,3.992,0,0,1-3.988,3.988H2.488A3.992,3.992,0,0,1-1.5,45.993V2.488A3.992,3.992,0,0,1,2.488-1.5ZM32.216,47.805a1.815,1.815,0,0,0,1.813-1.813V2.488A1.815,1.815,0,0,0,32.216.675H2.488A1.815,1.815,0,0,0,.675,2.488v43.5a1.815,1.815,0,0,0,1.813,1.813Z" transform="translate(11.651 1.5)" fill="#111"/>
  <rect id="Rectangle_15" data-name="Rectangle 15" width="18" height="24" rx="4" transform="translate(1.043 19.5)" fill="#4891db"/>
  <path id="Rectangle_15_-_Outline" data-name="Rectangle 15 - Outline" d="M2.488-1.5H14.814A3.992,3.992,0,0,1,18.8,2.488V20.615A3.992,3.992,0,0,1,14.814,24.6H2.488A3.992,3.992,0,0,1-1.5,20.615V2.488A3.992,3.992,0,0,1,2.488-1.5ZM14.814,22.428a1.815,1.815,0,0,0,1.813-1.813V2.488A1.815,1.815,0,0,0,14.814.675H2.488A1.815,1.815,0,0,0,.675,2.488V20.615a1.815,1.815,0,0,0,1.813,1.813Z" transform="translate(1.5 19.627)" fill="#111"/>
</svg>
