<svg id="Group_2270" data-name="Group 2270" xmlns="http://www.w3.org/2000/svg" width="47.855" height="34.804" viewBox="0 0 47.855 34.804">
  <path id="Rectangle_16" data-name="Rectangle 16" d="M2.488-1.5H42.367a3.992,3.992,0,0,1,3.988,3.988V29.316A3.992,3.992,0,0,1,42.367,33.3H2.488A3.992,3.992,0,0,1-1.5,29.316V2.488A3.992,3.992,0,0,1,2.488-1.5ZM42.367,31.128a1.815,1.815,0,0,0,1.813-1.813V2.488A1.815,1.815,0,0,0,42.367.675H2.488A1.815,1.815,0,0,0,.675,2.488V29.316a1.815,1.815,0,0,0,1.813,1.813Z" transform="translate(1.5 1.5)" fill="#111"/>
  <path id="Path_4" data-name="Path 4" d="M651,838.055v12.594l12.144-6.482Z" transform="translate(-640.846 -829.85)" fill="#c48a08"/>
  <path id="Path_4_-_Outline" data-name="Path 4 - Outline" d="M650.584,836.555a1.087,1.087,0,0,1,.489.116l12.144,6.112a1.088,1.088,0,0,1,.023,1.931L651.1,851.2a1.088,1.088,0,0,1-1.6-.959V837.642a1.088,1.088,0,0,1,1.088-1.088Zm9.781,7.228-8.694-4.376v9.016Z" transform="translate(-640.433 -829.438)" fill="#111"/>
</svg>
